<?xml version="1.0" encoding="UTF-8" standalone="no"?>
<!-- Created with Inkscape (http://www.inkscape.org/) -->

<svg
   xmlns:dc="http://purl.org/dc/elements/1.1/"
   xmlns:cc="http://creativecommons.org/ns#"
   xmlns:rdf="http://www.w3.org/1999/02/22-rdf-syntax-ns#"
   xmlns:svg="http://www.w3.org/2000/svg"
   xmlns="http://www.w3.org/2000/svg"
   xmlns:xlink="http://www.w3.org/1999/xlink"
   xmlns:sodipodi="http://sodipodi.sourceforge.net/DTD/sodipodi-0.dtd"
   xmlns:inkscape="http://www.inkscape.org/namespaces/inkscape"
   width="1000.0059"
   height="217.50156"
   id="svg2"
   inkscape:label="Pozadí"
   version="1.1"
   inkscape:version="0.48.5 r10040"
   sodipodi:docname="logo.svg"
   inkscape:export-filename="C:\Users\Jan\_\logo.png"
   inkscape:export-xdpi="89.999466"
   inkscape:export-ydpi="89.999466">
  <defs
     id="defs2990">
    <linearGradient
       id="linearGradient3821">
      <stop
         id="stop3823"
         offset="0"
         style="stop-color:#3cb9fa;stop-opacity:1" />
      <stop
         id="stop3825"
         offset="1"
         style="stop-color:#0a60a3;stop-opacity:1" />
    </linearGradient>
    <linearGradient
       id="linearGradient3801">
      <stop
         style="stop-color:#24aafa;stop-opacity:1;"
         offset="0"
         id="stop3803" />
      <stop
         style="stop-color:#0a6aa3;stop-opacity:1;"
         offset="1"
         id="stop3805" />
    </linearGradient>
    <radialGradient
       inkscape:collect="always"
       xlink:href="#linearGradient3801"
       id="radialGradient3807"
       cx="87.417305"
       cy="29.131222"
       fx="87.417305"
       fy="29.131222"
       r="25.238585"
       gradientTransform="matrix(1.1100664,1.1106698,-0.79222596,0.79179556,17.20577,830.86565)"
       gradientUnits="userSpaceOnUse" />
    <radialGradient
       inkscape:collect="always"
       xlink:href="#linearGradient3821"
       id="radialGradient3817"
       gradientUnits="userSpaceOnUse"
       gradientTransform="matrix(-44.743748,-42.717889,41.761455,-43.742552,-7866.7915,-6153.9888)"
       cx="-173.00708"
       cy="29.448359"
       fx="-173.00708"
       fy="29.448359"
       r="25.238585" />
    <radialGradient
       inkscape:collect="always"
       xlink:href="#linearGradient3821"
       id="radialGradient3885"
       gradientUnits="userSpaceOnUse"
       gradientTransform="matrix(-44.743748,-42.717889,41.761455,-43.742552,-7866.7915,-6153.9888)"
       cx="-173.00708"
       cy="29.448359"
       fx="-173.00708"
       fy="29.448359"
       r="25.238585" />
  </defs>
  <sodipodi:namedview
     id="base"
     pagecolor="#ffffff"
     bordercolor="#666666"
     borderopacity="1.0"
     inkscape:pageopacity="0.0"
     inkscape:pageshadow="2"
     inkscape:zoom="0.98994948"
     inkscape:cx="492.47107"
     inkscape:cy="134.55457"
     inkscape:document-units="px"
     inkscape:current-layer="layer1"
     showgrid="false"
     showguides="true"
     inkscape:guide-bbox="true"
     inkscape:window-width="1920"
     inkscape:window-height="1137"
     inkscape:window-x="1358"
     inkscape:window-y="-8"
     inkscape:window-maximized="1"
     fit-margin-top="0"
     fit-margin-left="0"
     fit-margin-right="0"
     fit-margin-bottom="0" />
  <metadata
     id="metadata2993">
    <rdf:RDF>
      <cc:Work
         rdf:about="">
        <dc:format>image/svg+xml</dc:format>
        <dc:type
           rdf:resource="http://purl.org/dc/dcmitype/StillImage" />
        <dc:title></dc:title>
      </cc:Work>
    </rdf:RDF>
  </metadata>
  <g
     inkscape:label="Vrstva 1"
     inkscape:groupmode="layer"
     id="layer1"
     transform="translate(-603.99411,160.38935)">
    <path
       style="fill:#ffffff;fill-opacity:1;fill-rule:evenodd;stroke:none"
       d="m 605.375,995.25 c -3.53544,-0.10366 0.75699,5.0145 1.40625,5.8438 -2.57248,1.1921 -0.0332,3.7124 0.8125,5 -0.6629,1.0584 -0.223,1.2674 -0.1875,2.0312 0.0546,1.143 -0.53174,1.915 -0.40625,2.8125 0.47193,3.3827 4.88612,5.4934 7.625,6.8437 3.82734,6.138 6.25287,13.519 11.46875,18.0938 0.76656,0.6711 1.90682,1.0611 2.8125,1.7812 0.97935,0.7748 1.61986,2.0829 2.59375,2.4376 5.49686,2.0077 11.59351,4.4805 18.3125,6 2.08963,2.9161 4.72106,5.9943 9.03125,6.0624 2.26148,3.7728 2.08937,9.5361 3.21875,14.25 0.39829,1.6532 1.43355,2.9419 1.40625,4.625 -0.06,3.7619 -3.09694,6.6516 -2.625,10.6563 -3.78369,1.7459 -8.75398,6.4109 -5.625,11.875 -2.20693,1.5577 0.48839,5.0808 1.03125,7.0313 -0.97115,0.892 0.0402,2.854 0.1875,4.4062 -0.53468,1.2467 -0.95206,3.3545 0,4.4375 -2.01324,1.975 -1.40355,7.0603 1.40625,7.625 0.72565,2.9926 -1.75724,6.2065 0.8125,8.6563 -2.27785,1.6531 -1.89983,6.4903 1,7.2187 -1.42127,2.1551 0.39482,4.1517 0.1875,6.0313 -0.0846,0.7638 -0.94,1.4139 -1,2.2187 -0.0982,1.3531 0.74503,3.2144 0.625,5.0313 -0.89751,0.9165 -1.60819,2.0179 -2.4375,3 0.30281,-7.0764 -10.15812,-5.383 -8.625,1.2187 0.2537,1.0885 1.23963,1.4711 1.8125,2.625 -0.72291,-0.5238 -1.81553,-0.02 -2.4375,0.1875 -1.80046,2.1496 -0.15004,4.8834 0,7.625 0.0436,0.832 -0.3859,1.7057 -0.375,2.625 0.0273,1.9996 1.1364,3.7838 1,5.2188 -0.0791,0.8238 -0.8862,1.6506 -0.8125,2.4062 0.11457,1.1403 1.30688,2.0149 2.40625,2.0312 0.97389,-0.2155 0.85426,-2.4181 2,-1.8124 0.87568,4.7766 -0.0509,9.0042 2.21875,12.4687 -1.33398,1.2903 -1.59764,3.8419 -0.59375,5.0313 -2.43608,0.3109 -5.09941,0.3722 -7.84375,0.375 -1.06663,7.7119 -2.40876,15.1591 -2.8125,23.5312 27.17057,-0.5592 54.4621,-0.075 81.40625,-1 0.14731,-3.4345 -1.23322,-4.9851 -2.40625,-7.4375 -2.58338,-5.3877 -5.12396,-10.6812 -7.84375,-15.4687 -0.56469,-0.2428 -1.39491,-0.2379 -2.21875,-0.2188 -1.44037,-5.3168 -6.45081,-7.5549 -8.625,-12.6562 0.20733,-1.5468 -0.33311,-2.39 -0.625,-3.4376 1.99687,-5.4859 4.17431,-16.5896 0.21875,-21.5 0.58651,-2.3296 1.50853,-3.7834 2.8125,-6.0312 1.4922,-2.5697 3.27153,-3.4651 2.625,-7.2188 1.02026,-1.1893 3.13818,-1.6881 3.59375,-3.625 0.17459,-0.7392 -0.1875,-1.5905 -0.1875,-2.4062 -0.0109,-3.1754 0.85312,-7.2988 0.1875,-10.4688 1.5904,-1.8113 0.68585,-5.6442 1.8125,-8.0312 0.44193,-0.9384 1.56426,-1.4269 1.8125,-2.4062 -1.05572,8.6803 -1.73223,17.6682 -2.8125,26.125 -0.36009,2.8152 -1.39062,6.0096 -1.21875,8.4374 0.0709,1.0285 0.91395,1.9565 1.03125,3.0313 0.35463,3.1999 -1.21075,6.3303 -1.21875,9.4375 1.16211,0.8893 0.91889,2.0644 0.8125,4.0312 1.85229,0.4229 1.75834,2.7764 3.8125,3 1.38854,-0.9575 0.59972,-4.0854 0.8125,-6.2187 1.06118,-0.076 1.72153,-0.5757 2.40625,-1.0313 -0.98207,-2.9025 1.34394,-4.548 0.59375,-7.2187 0.90569,-1.3067 2.24898,-2.1949 1.8125,-4.8437 1.62315,-0.9958 1.71772,-3.6411 4.4375,-3 0.0191,-8.2221 0.23639,-16.2412 0.59375,-24.125 1.01208,-0.4393 0.67493,-1.7598 1.8125,-2.4063 l 0,-4.625 c 2.49609,-1.2631 1.61085,-7.0876 1.40625,-11.4687 -0.21278,-4.5803 -0.28055,-9.7481 -0.8125,-13.0626 -0.27557,-1.6913 -0.1084,-4.0174 -0.1875,-5.8124 -0.29463,-6.6045 -4.68843,-10.2007 -7.25,-13.4688 -0.0764,-0.6793 0.88019,-0.3294 0.59375,-1.2188 -2.18237,0.1828 -0.75834,-3.4828 -2.8125,-3 0.28644,0.6411 1.00462,3.1881 -0.1875,3.4063 0.15549,-4.0429 0.0819,-9.0547 -2.8125,-11.0625 0.93023,-1.2521 -0.12778,-3.6811 -0.8125,-4.625 0.23734,-2.2997 -0.54789,-3.0937 -0.8125,-5.2188 0.14186,-0.5456 -0.92583,0.1367 -0.78125,-0.4062 -0.28094,-3.3936 -0.15055,-5.0146 -0.21875,-8.25 -2.04325,-2.0432 -5.14986,-3.0136 -9.25,-3 -0.47739,-0.6629 0.18078,-1.5253 -0.1875,-2 -2.52882,-0.311 -6.71939,-2.2863 -8.65625,-0.625 -1.20849,-0.401 -2.06209,-1.1436 -3.21875,-1.5938 0.4092,-2.406 0.77387,-4.8796 1.625,-6.8437 0.65198,-0.2482 0.16324,0.6545 0.8125,0.4063 -0.29735,-1.3995 0.49555,-1.4659 0.59375,-2.2188 0.15822,-1.1921 0.49165,-1.8984 1.59375,-3.2188 1.15669,-1.383 2.76278,-3.549 1.21875,-5.625 0.16095,-0.6437 0.58575,-1.0186 0.59375,-1.8124 -0.61652,-4.4521 -2.31871,-7.4161 -5.625,-9.4376 -1.71317,-1.0529 -4.85684,-2.38784 -7.4375,-2.2187 -0.52922,0.0355 -1.20071,0.64609 -2,0.8125 -6.11065,1.274 -10.22003,8.1217 -7.4375,13.875 -1.75136,2.567 0.76717,3.8372 1.59375,6.2188 1.12392,3.2244 1.55996,5.4315 0.8125,9.0624 -3.15899,2.7035 -8.29034,1.1442 -13.65625,1.8126 -0.12277,0.4801 0.23409,1.4437 -0.21875,1.5937 -1.58223,1.023 -2.72728,-0.6419 -4.03125,-1.1875 -0.58924,-0.2482 -1.35347,-0.1198 -2,-0.4062 -0.87023,-0.382 -1.39144,-1.2481 -2.40625,-1.4063 -2.40061,-0.3792 -3.42677,1.6924 -5.84375,0.7813 0.20187,1.3639 -0.77787,1.7986 -2,2.2187 -2.78526,-1.8223 -6.55182,-0.4942 -9.65625,-2 -0.71473,-0.3465 -1.38275,-1.7466 -2.1875,-2.625 -2.70342,-2.9489 -7.40767,-5.2574 -9.84375,-8.25 -0.82658,-1.0148 -1.88897,-2.666 -2.84375,-4 -1.01208,-1.4131 -2.53079,-2.9592 -3,-4.0313 -0.99025,-2.2532 -0.99662,-5.5708 -2.21875,-7.625 -1.98324,-1.233 -3.14979,-3.2929 -6.21875,-3.4374 -2.10054,-0.64658 -5.16856,-5.1561 -7.25,-5.2188 z m 180.4375,36.75 0,6.3125 c 3.95736,1.1186 6.7404,2.128 8.375,3.0313 1.63454,0.9033 2.94815,2.1195 3.9375,3.625 0.98933,1.5056 1.69483,3.6027 2.125,6.3124 0.43026,2.7103 0.65622,7.0329 0.65625,12.9688 l 0,111.625 c -3e-5,6.3662 -0.28457,11.0904 -0.84375,14.1875 -0.55923,3.0971 -1.7559,5.5099 -3.5625,7.1875 -1.80665,1.6776 -5.35367,3.186 -10.6875,4.5625 l 0,6.3125 56.65625,0 0,-6.3125 c -4.21553,-0.9463 -7.33388,-1.9168 -9.3125,-2.9063 -1.97876,-0.9892 -3.52615,-2.3612 -4.6875,-4.125 -1.16146,-1.7635 -2.03463,-4.1451 -2.59375,-7.1562 -0.55926,-3.011 -0.8438,-7.0492 -0.84375,-12.125 l 0,-42.8438 c 5.24777,0.3445 12.63808,0.5002 22.1875,0.5 8.51688,2e-4 16.66343,-0.9899 24.40625,-2.9687 7.74258,-1.9786 14.4469,-5.2528 20.125,-9.8125 5.67786,-4.5595 10.05905,-10.3908 13.15625,-17.5312 3.09695,-7.1404 4.65611,-15.1779 4.65625,-24.125 -1.4e-4,-15.7435 -4.93094,-27.4876 -14.78125,-35.1876 -9.85056,-7.6994 -24.83781,-11.531 -44.96875,-11.5312 l -64,0 z m 58.4375,11.3438 c 5.67791,0 10.93222,0.6277 15.75,1.875 4.81757,1.2475 8.98445,3.3641 12.46875,6.375 3.48413,3.0111 6.20869,6.991 8.1875,11.9374 1.97857,4.947 2.96864,11.1329 2.96875,18.5313 -1.1e-4,9.7215 -1.6762,17.5445 -5.03125,23.4375 -3.35529,5.8931 -8.20815,10.0872 -14.53125,12.625 -6.3233,2.538 -14.34119,3.8126 -24.0625,3.8125 l -14.96875,0 0,-78.0625 c 4.30143,-0.344 10.70173,-0.5312 19.21875,-0.5312 z m 459,9.5624 c -0.9464,7.829 -1.8584,13.7889 -2.7188,17.875 -0.8603,4.0867 -2.0257,7.4776 -3.5312,10.1876 -1.5055,2.7099 -3.6144,4.9357 -6.2812,6.6562 -2.667,1.7207 -6.136,2.9055 -10.4376,3.5938 l 0,6.5937 19.0938,0 0,71.625 c 0,14.0229 2.7051,24.3249 8.125,30.9063 5.4198,6.5812 13.6834,9.875 24.7812,9.875 5.85,0 11.5058,-1.3332 16.9688,-4 5.4628,-2.6671 11.2354,-6.9702 17.3438,-12.9063 l -5.7813,-6.9687 c -2.9251,2.6668 -5.8952,4.7054 -8.9063,6.125 -3.011,1.4193 -6.2463,2.125 -9.6874,2.125 -3.7854,0 -6.8725,-0.608 -9.2813,-1.8126 -2.4089,-1.2042 -4.5762,-3.2038 -6.4687,-6 -1.8928,-2.7958 -3.1869,-6.6781 -3.875,-11.625 -0.6884,-4.9466 -1.0313,-11.5926 -1.0313,-19.9374 l 0,-57.4063 41.6875,0 0,-13.0313 -41.6875,0 0,-31.875 -18.3125,0 z m -293.4375,29.6876 c -5.9362,0 -11.24894,0.881 -15.9375,2.6874 -4.6887,1.8069 -9.05041,4.3754 -13.09375,7.6876 -4.04348,3.3121 -8.42467,7.861 -13.15625,13.625 l -1.8125,-0.4063 1.40625,-22.5625 -7.84375,0 -30.21875,1.2812 0,6.7188 c 3.87134,0.6883 6.86098,1.5108 8.96875,2.5 2.10771,0.9895 3.68638,2.5098 4.71875,4.5312 1.03235,2.022 1.64037,4.7075 1.8125,8.0626 0.17213,3.3551 0.24997,7.7754 0.25,13.2812 l 0,56.2812 c -3e-5,6.0223 -0.26509,10.4423 -0.78125,13.2813 -0.51621,2.839 -1.28018,4.936 -2.3125,6.3125 -1.0324,1.3765 -2.26803,2.4444 -3.6875,3.2188 -1.41953,0.7741 -3.76213,1.6864 -7.03125,2.7187 l 0,6.3125 52,0 0,-6.3125 c -4.38758,-0.7743 -7.6813,-1.8423 -9.875,-3.2187 -2.19383,-1.3766 -3.74122,-3.5633 -4.6875,-6.5313 -0.94639,-2.968 -1.43755,-8.3587 -1.4375,-16.1875 l 0,-45.1562 c -5e-5,-4.1295 0.54958,-7.7077 1.625,-10.7188 1.07534,-3.011 3.03595,-6.2462 5.875,-9.6875 2.83892,-3.4411 5.78963,-6.0683 8.84375,-7.875 3.05399,-1.8065 6.1216,-2.6874 9.21875,-2.6875 4.04334,10e-5 7.23957,1.0487 9.56255,3.1562 2.3227,2.108 4.4977,5.4796 6.5624,10.125 l 14.5938,0 0,-29.6874 c -4.0435,-0.5161 -8.5729,-0.75 -13.5625,-0.75 z m 80.3125,0 c -4.9495,0.127 -9.8387,0.7026 -14.6562,1.7187 -5.5061,1.1615 -11.0254,2.7596 -16.5313,4.7813 -5.5059,2.0217 -12.3973,5.1984 -20.6563,9.5 l 0,16.75 16.9063,0 c 2.0647,-7.0545 5.1635,-12.3165 9.25,-15.8438 4.0864,-3.5271 9.4771,-5.3124 16.1875,-5.3125 6.1941,10e-5 11.1443,1.2163 14.8438,3.625 3.6992,2.409 6.4042,6.1822 8.125,11.3437 1.7204,5.162 2.5936,12.2093 2.5937,21.1563 l 0,8.4063 c -24.8627,1.1183 -43.5375,5.0982 -55.9687,11.9374 -12.4314,6.8396 -18.625,16.5335 -18.625,29.0938 0,6.0221 1.333,11.3349 4,15.9375 2.6668,4.6026 6.4789,8.181 11.4687,10.7187 4.9897,2.538 10.7742,3.8126 17.3125,3.8126 7.3985,0 14.3873,-1.5982 20.9688,-4.7813 6.5812,-3.1831 13.609,-8.6245 21.0937,-16.2813 l 1.9375,0.5313 -0.6562,18.4375 35.375,0 0,-6.3125 c -3.7855,-1.0323 -6.5413,-2.0225 -8.2188,-2.9687 -1.6777,-0.9465 -2.9523,-2.0728 -3.8125,-3.4063 -0.8604,-1.3334 -1.4761,-3.1382 -1.9063,-5.375 -0.4302,-2.2368 -0.6953,-4.6572 -0.7812,-7.2813 -0.086,-2.6237 -0.1251,-7.1024 -0.125,-13.4687 l 0,-44.9375 c -10e-5,-11.2698 -1.2942,-19.6893 -3.875,-25.2812 -2.581,-5.592 -6.4633,-9.7274 -11.625,-12.4376 -5.1619,-2.7097 -11.9831,-4.0624 -20.5,-4.0624 -0.7098,0 -1.4179,-0.018 -2.125,0 z m 127.6875,0 c -11.0979,0 -20.9206,2.6661 -29.4375,8 -8.517,5.3338 -15.0538,12.8802 -19.6562,22.6874 -4.6027,9.8077 -6.9063,21.1191 -6.9063,33.9376 0,20.7331 4.498,36.4379 13.5313,47.0624 9.0331,10.6249 22.4339,15.9376 40.1562,15.9376 6.6242,0 12.6815,-0.9317 18.1875,-2.7813 5.5058,-1.8496 10.5534,-4.4184 15.1563,-7.6875 4.6023,-3.2691 9.6502,-7.7985 15.1562,-13.5625 l -7.875,-8.375 c -5.5921,5.9361 -11.2088,10.22 -16.8438,12.8437 -5.6349,2.6241 -11.9768,3.9376 -19.0312,3.9376 -8.345,0 -15.1077,-1.9608 -20.3125,-5.875 -5.2049,-3.9145 -8.9391,-9.3247 -11.2187,-16.25 -2.2799,-6.9255 -3.4376,-15.4736 -3.4376,-25.625 l 0,-2.3126 81.3126,0 c -0.2583,-11.6999 -1.4159,-21.1991 -3.4376,-28.4687 -2.0217,-7.2694 -4.8438,-13.2877 -8.5,-18.0625 -3.6563,-4.7745 -8.5481,-8.5283 -14.6562,-11.2812 -6.1082,-2.753 -13.4985,-4.125 -22.1875,-4.125 z m 211.4687,0 c -10.1823,0.2797 -19.3097,2.6801 -27.375,7.1562 -8.603,4.7748 -15.397,12.0677 -20.3437,21.875 -4.9467,9.8075 -7.4063,21.8051 -7.4063,36 0,20.6472 4.7048,36.2427 14.125,46.7812 9.4203,10.5388 23.0745,15.8126 40.9688,15.8126 11.8721,0 22.1545,-2.4518 30.8438,-7.3126 8.6889,-4.8605 15.3931,-12.1924 20.125,-22 4.7315,-9.8072 7.0936,-21.8438 7.0937,-36.125 -10e-5,-20.0448 -4.7243,-35.414 -14.1875,-46.125 -9.4634,-10.7105 -23.4021,-16.0624 -41.8125,-16.0624 -0.6882,0 -1.3523,-0.019 -2.0313,0 z m 161.1563,0 c -5.9362,0 -11.2489,0.881 -15.9375,2.6874 -4.6887,1.8069 -9.0503,4.3754 -13.0938,7.6876 -4.0434,3.3121 -8.4246,7.861 -13.1562,13.625 l -1.8125,-0.4063 1.4375,-22.5625 -7.875,0 -30.1875,1.2812 0,6.7188 c 3.8713,0.6883 6.8611,1.5108 8.9687,2.5 2.1078,0.9895 3.6551,2.5098 4.6876,4.5312 1.0323,2.022 1.6403,4.7075 1.8124,8.0626 0.1722,3.3551 0.25,7.7754 0.25,13.2812 l 0,56.2812 c 0,6.0223 -0.2337,10.4423 -0.75,13.2813 -0.5162,2.839 -1.3114,4.936 -2.3437,6.3125 -1.0324,1.3765 -2.2367,2.4444 -3.6563,3.2188 -1.4194,0.7741 -3.7934,1.6864 -7.0624,2.7187 l 0,6.3125 52.0312,0 0,-6.3125 c -4.3876,-0.7743 -7.6813,-1.8423 -9.875,-3.2187 -2.1938,-1.3766 -3.7724,-3.5633 -4.7188,-6.5313 -0.9463,-2.968 -1.4063,-8.3587 -1.4062,-16.1875 l 0,-45.1562 c -10e-5,-4.1295 0.5182,-7.7077 1.5938,-10.7188 1.0752,-3.011 3.0359,-6.2462 5.875,-9.6875 2.8388,-3.4411 5.7896,-6.0683 8.8437,-7.875 3.054,-1.8065 6.1217,-2.6874 9.2187,-2.6875 4.0435,10e-5 7.2397,1.0487 9.5626,3.1562 2.3226,2.108 4.4977,5.4796 6.5624,10.125 l 14.5938,0 0,-29.6874 c -4.0435,-0.5161 -8.5729,-0.75 -13.5625,-0.75 z m -373.9063,10.1874 c 5.85,3e-4 10.5742,1.5475 14.1876,4.6876 3.6131,3.14 6.3181,7.6696 8.125,13.5624 1.8064,5.8933 2.9524,13.4901 3.4687,22.7813 l -56.375,0 c 0.9463,-13.1625 4.053,-23.3086 9.3437,-30.4063 5.2909,-7.0972 12.3889,-10.6247 21.25,-10.625 z m 214.2813,0 c 6.1941,3e-4 11.6822,1.9609 16.5,5.875 4.8176,3.9146 8.6414,10.0303 11.4375,18.375 2.7959,8.3451 4.1874,18.8538 4.1875,31.5 -10e-5,6.7966 -0.5692,13.2942 -1.6875,19.5313 -1.1185,6.2372 -2.9309,11.7372 -5.4688,16.4687 -2.5379,4.7318 -5.8315,8.4853 -9.875,11.2813 -4.0434,2.796 -8.9548,4.1875 -14.7187,4.1875 -10.4957,0 -18.5526,-4.7437 -24.1875,-14.25 -5.635,-9.5063 -8.4688,-23.1214 -8.4688,-40.8438 0,-16.6896 2.7948,-29.5604 8.3438,-38.5937 5.5489,-9.033 13.5278,-13.531 23.9375,-13.5313 z m -750.625,46.6876 c 2.78858,-0.1179 4.79729,0.6977 7.40625,1.125 1.29851,4.9348 2.01234,10.4417 4.4375,14.25 -0.56742,2.5533 -0.92729,4.6913 -0.40625,6.8437 0.43102,1.7841 1.91448,2.9364 2.59375,4.625 0.54832,1.364 1.97125,5.2861 2.03125,6.8437 0.0436,1.1458 -0.5895,2.1958 -0.625,3.2188 -0.17459,4.8121 4.28768,6.4833 4.03125,11.8438 -5.89787,0.4664 -12.67284,0.085 -18.90625,0.2187 -2.91892,-2.7934 -1.8671,-6.4104 -1.8125,-11.6563 0.0245,-2.2423 -0.35663,-4.7459 -0.1875,-6.8437 0.16368,-2.0214 1.09054,-4.0569 1.21875,-5.8437 0.19642,-2.6735 -0.46656,-4.9846 -1.03125,-7.2188 -0.55651,-2.2097 -1.59875,-4.7248 -1.59375,-6.6562 0.005,-3.1045 2.40941,-6.8004 1.59375,-10.625 0.43477,-0.058 0.85163,-0.1082 1.25,-0.125 z m 426,9.8124 0,18.2188 c -10e-5,4.3015 -1.3643,8.6438 -4.0313,13.0312 -2.6668,4.3877 -6.3816,8.0048 -11.1562,10.8438 -4.7747,2.839 -10.0875,4.25 -15.9375,4.25 -4.1295,0 -7.6765,-0.5496 -10.6875,-1.625 -3.0111,-1.0753 -5.5213,-3.036 -7.5,-5.875 -1.9787,-2.839 -2.9688,-6.6899 -2.9688,-11.5938 0,-9.0329 4.3422,-15.8076 13.0313,-20.2812 8.689,-4.4735 21.7858,-6.7965 39.25,-6.9688 z"
       transform="translate(0,-1155.6378)"
       id="path22"
       inkscape:connector-curvature="0" />
  </g>
</svg>
