<?xml version="1.0" encoding="UTF-8" standalone="no"?>
<svg
   xmlns:dc="http://purl.org/dc/elements/1.1/"
   xmlns:cc="http://creativecommons.org/ns#"
   xmlns:rdf="http://www.w3.org/1999/02/22-rdf-syntax-ns#"
   xmlns:svg="http://www.w3.org/2000/svg"
   xmlns="http://www.w3.org/2000/svg"
   xmlns:sodipodi="http://sodipodi.sourceforge.net/DTD/sodipodi-0.dtd"
   xmlns:inkscape="http://www.inkscape.org/namespaces/inkscape"
   enable-background="new 0 0 30 30"
   height="20.005579"
   id="Layer_1"
   version="1.1"
   viewBox="0 0 20.010001 20.005579"
   width="20.01"
   xml:space="preserve"
   inkscape:version="0.48.5 r10040"
   sodipodi:docname="1448567218_pdf.svg"><metadata
     id="metadata13"><rdf:RDF><cc:Work
         rdf:about=""><dc:format>image/svg+xml</dc:format><dc:type
           rdf:resource="http://purl.org/dc/dcmitype/StillImage" /><dc:title></dc:title></cc:Work></rdf:RDF></metadata><defs
     id="defs11" /><sodipodi:namedview
     pagecolor="#ffffff"
     bordercolor="#666666"
     borderopacity="1"
     objecttolerance="10"
     gridtolerance="10"
     guidetolerance="10"
     inkscape:pageopacity="0"
     inkscape:pageshadow="2"
     inkscape:window-width="1920"
     inkscape:window-height="1137"
     id="namedview9"
     showgrid="false"
     fit-margin-top="0.4"
     fit-margin-bottom="0.4"
     fit-margin-left="0"
     fit-margin-right="0"
     inkscape:zoom="16"
     inkscape:cx="10.53165"
     inkscape:cy="9.5854224"
     inkscape:window-x="1358"
     inkscape:window-y="-8"
     inkscape:window-maximized="1"
     inkscape:current-layer="g3" /><g
     id="g3"
     transform="translate(-4.4683496,-4.5798433)"><path
       d="m 14.548776,5.9500169 c 0.388173,0.1687311 0.301503,0.4241329 0.173341,1.6246135 -0.13185,1.243816 -0.569814,3.5092386 -1.415313,5.7331706 -0.846422,2.226698 -2.102224,4.411905 -3.196672,6.031908 -1.0926032,1.61816 -2.0293838,2.670194 -2.7421115,3.276888 -0.7164159,0.606695 -1.211545,0.76805 -1.5351768,0.823371 -0.3208658,0.05532 -0.4665463,0 -0.5532169,-0.161354 -0.086671,-0.161355 -0.1170976,-0.433354 -0.042413,-0.755142 0.07284,-0.325475 0.2471035,-0.703507 0.7413106,-1.18665 0.4988172,-0.485909 1.3148121,-1.078773 2.4535169,-1.633834 1.1387047,-0.552294 2.5964307,-1.065864 3.7941457,-1.415313 1.197714,-0.351292 2.130807,-0.539386 2.947724,-0.686911 0.818761,-0.148446 1.51858,-0.256324 2.203647,-0.309801 0.686911,-0.05532 1.359069,-0.05532 2.015553,0 0.656484,0.05348 1.299138,0.161355 1.854199,0.294127 0.554139,0.135538 1.021607,0.297815 1.430066,0.555061 0.407536,0.255402 0.758829,0.606694 0.933092,0.997634 0.177029,0.391862 0.177029,0.823371 0.03043,1.133173 -0.145681,0.309801 -0.438885,0.499739 -0.773582,0.605772 -0.334696,0.107878 -0.714571,0.134616 -1.167287,0 C 21.24731,20.742114 20.71991,20.446143 20.166693,20.053359 19.613476,19.663341 19.02891,19.179276 18.270081,18.423213 17.511252,17.66715 16.576315,16.640011 15.788903,15.643299 15.001491,14.644742 14.356994,13.673846 13.91903,12.851397 13.482911,12.028026 13.248716,11.354024 13.058778,10.678177 12.86884,10.004175 12.72316,9.330172 12.665072,8.7234775 c -0.05809,-0.6085386 -0.03043,-1.147925 0.02858,-1.5766681 0.05809,-0.4333532 0.147524,-0.7560631 0.292283,-0.9718177 0.14568,-0.2166766 0.351293,-0.3245539 0.496973,-0.3780315 0.14568,-0.055322 0.234195,-0.055322 0.320866,-0.067308 0.08667,-0.012908 0.173341,-0.040569 0.307035,0 0.12724,0.036881 0.296893,0.1401483 0.437964,0.2203648 z"
       stroke-miterlimit="10"
       id="path7"
       inkscape:connector-curvature="0"
       style="fill:none;stroke:#ea4c3a;stroke-width:1.44758415;stroke-linejoin:round;stroke-miterlimit:10" /></g></svg>