<?xml version="1.0" encoding="utf-8"?>
<!-- Generator: Adobe Illustrator 18.1.0, SVG Export Plug-In . SVG Version: 6.00 Build 0)  -->
<svg version="1.1" id="Layer_1" xmlns="http://www.w3.org/2000/svg" xmlns:xlink="http://www.w3.org/1999/xlink" x="0px" y="0px"
	 viewBox="0 0 500 500" enable-background="new 0 0 500 500" xml:space="preserve">
<g>
	<path fill="#010101" d="M500,185.4h-10.9h-34.5H74.2c-6,0-12.1,4.8-13.5,10.6L11.5,392.2c-1.4,5.9,2.2,10.6,8.2,10.6h418
		c6,0,12.1-4.8,13.4-10.6L497.4,196c0-0.1,0-0.1,0-0.2L500,185.4z"/>
	<path fill="#010101" d="M63.2,170.8h391.2v-32.3c0-4-3.3-7.3-7.3-7.3H180l-22.1-34h-53.6H50.8l-22.1,34H7.3c-4,0-7.3,3.3-7.3,7.3
		v239.2l47.1-194.2C48.8,176.2,55.8,170.8,63.2,170.8z"/>
</g>
</svg>
